<svg width="14" height="17" viewBox="0 0 14 17" fill="none" xmlns="http://www.w3.org/2000/svg">
<path fill-rule="evenodd" clip-rule="evenodd" d="M7.00008 8.71575C5.95721 8.71575 5.10825 7.86216 5.10825 6.81359C5.10825 5.76503 5.95721 4.91144 7.00008 4.91144C8.04296 4.91144 8.89192 5.76503 8.89192 6.81359C8.89192 7.86216 8.04296 8.71575 7.00008 8.71575ZM6.99993 3.96027C5.43601 3.96027 4.16217 5.24026 4.16217 6.8135C4.16217 8.38674 5.43601 9.66673 6.99993 9.66673C8.56385 9.66673 9.83769 8.38674 9.83769 6.8135C9.83769 5.24026 8.56385 3.96027 6.99993 3.96027ZM11.2833 11.3447L6.99986 15.6515L2.71642 11.3447C0.354779 8.97016 0.354779 5.10641 2.71642 2.73188C3.89725 1.54383 5.44777 0.950195 6.99986 0.950195C8.55117 0.950195 10.1025 1.54462 11.2833 2.73188C13.6449 5.10641 13.6449 8.97016 11.2833 11.3447ZM11.9527 2.05908C9.22134 -0.686361 4.77867 -0.686361 2.04732 2.05908C-0.682441 4.80453 -0.682441 9.27222 2.04732 12.0177L6.66578 16.6605C6.758 16.754 6.8794 16.8 7 16.8C7.12061 16.8 7.242 16.754 7.33423 16.6605L11.9527 12.0177C14.6824 9.27222 14.6824 4.80453 11.9527 2.05908Z" fill="#FF7643"/>
</svg>
