<svg width="46" height="46" viewBox="0 0 46 46" fill="none" xmlns="http://www.w3.org/2000/svg">
<rect width="45" height="45" transform="translate(0.5 0.5)" fill="#FF7643"/>
<path fill-rule="evenodd" clip-rule="evenodd" d="M36.5849 22.6027C36.543 22.5136 36.4935 22.4289 36.4201 22.3547L31.0962 17.0762C30.7456 16.7286 30.1762 16.7301 29.8241 17.0747C29.4734 17.4237 29.4734 17.9881 29.8226 18.3357L33.6286 22.1096H17.8113C17.3153 22.1096 16.9122 22.5091 16.9122 23.0007C16.9122 23.4923 17.3153 23.8904 17.8113 23.8904H33.5971L29.7911 27.6643C29.439 28.0119 29.439 28.5763 29.7911 28.9238C29.9664 29.0976 30.1957 29.1852 30.4264 29.1852C30.6557 29.1852 30.885 29.0976 31.0603 28.9238L36.3497 23.6825C36.5535 23.5176 36.6898 23.2785 36.6898 23.0007C36.6898 22.8552 36.6479 22.7245 36.5849 22.6027ZM26.2021 29.6842V31.1695C26.2021 34.936 23.1109 38 19.3109 38H10.3204C8.99878 38 7.92291 36.9336 7.92291 35.6251V10.3764C7.92291 9.06639 8.99878 8 10.3204 8H19.3109C23.1109 8 26.2021 11.064 26.2021 14.832V16.3172C26.2021 16.8089 25.8005 17.2069 25.3046 17.2069C24.8086 17.2069 24.4055 16.8089 24.4055 16.3172V14.832C24.4055 12.0472 22.1204 9.78078 19.3109 9.78078H10.3204C9.99523 9.78078 9.71952 10.0541 9.71952 10.3764V35.6251C9.71952 35.9459 9.99523 36.2192 10.3204 36.2192H19.3109C22.1204 36.2192 24.4055 33.9543 24.4055 31.1695V29.6842C24.4055 29.1926 24.8086 28.7931 25.3046 28.7931C25.8005 28.7931 26.2021 29.1926 26.2021 29.6842Z" fill="white"/>
</svg>
