<svg width="11" height="18" viewBox="0 0 11 18" fill="none" xmlns="http://www.w3.org/2000/svg">
<path fill-rule="evenodd" clip-rule="evenodd" d="M6.33333 15.0893C6.33333 15.5589 5.96 15.9384 5.5 15.9384C5.04 15.9384 4.66667 15.5589 4.66667 15.0893C4.66667 14.6198 5.04 14.2402 5.5 14.2402C5.96 14.2402 6.33333 14.6198 6.33333 15.0893ZM6.83333 2.63133C6.83333 2.91323 6.60999 3.14079 6.33333 3.14079H4.66666C4.38999 3.14079 4.16666 2.91323 4.16666 2.63133C4.16666 2.34943 4.38999 2.12272 4.66666 2.12272H6.33333C6.60999 2.12272 6.83333 2.34943 6.83333 2.63133ZM10 15.7924C10 16.4479 9.47669 16.9819 8.83335 16.9819H2.16669C1.52335 16.9819 1.00002 16.4479 1.00002 15.7924V2.20681C1.00002 1.55216 1.52335 1.01808 2.16669 1.01808H8.83335C9.47669 1.01808 10 1.55216 10 2.20681V15.7924ZM8.83333 0H2.16667C0.971667 0 0 0.990047 0 2.2068V15.7924C0 17.01 0.971667 18 2.16667 18H8.83333C10.0283 18 11 17.01 11 15.7924V2.2068C11 0.990047 10.0283 0 8.83333 0Z" fill="#FF7643"/>
</svg>
