<svg width="24" height="24" viewBox="0 0 24 24" fill="none" xmlns="http://www.w3.org/2000/svg">
<path d="M9.35355 5.64645C9.15829 5.45118 8.84171 5.45118 8.64645 5.64645C8.45118 5.84171 8.45118 6.15829 8.64645 6.35355L9.35355 5.64645ZM14.2929 11.2929L13.9393 11.6464V11.6464L14.2929 11.2929ZM14.2929 12.7071L13.9393 12.3536V12.3536L14.2929 12.7071ZM8.64645 17.6464C8.45118 17.8417 8.45118 18.1583 8.64645 18.3536C8.84171 18.5488 9.15829 18.5488 9.35355 18.3536L8.64645 17.6464ZM8.64645 6.35355L13.9393 11.6464L14.6464 10.9393L9.35355 5.64645L8.64645 6.35355ZM13.9393 12.3536L8.64645 17.6464L9.35355 18.3536L14.6464 13.0607L13.9393 12.3536ZM13.9393 11.6464C14.1346 11.8417 14.1346 12.1583 13.9393 12.3536L14.6464 13.0607C15.2322 12.4749 15.2322 11.5251 14.6464 10.9393L13.9393 11.6464Z" fill="#FF7643"/>
</svg>
