<svg width="18" height="18" viewBox="0 0 18 18" fill="none" xmlns="http://www.w3.org/2000/svg">
<path d="M17 6C17.2761 6 17.5 5.77614 17.5 5.5C17.5 5.22386 17.2761 5 17 5V6ZM1 5C0.72386 5 0.500002 5.22386 0.500002 5.5C0.500002 5.77614 0.72386 6 1 6V5ZM12.5 1C12.5 0.723858 12.2761 0.5 12 0.5C11.7239 0.5 11.5 0.723858 11.5 1H12.5ZM11.5 3C11.5 3.27614 11.7239 3.5 12 3.5C12.2761 3.5 12.5 3.27614 12.5 3H11.5ZM6.5 1C6.5 0.723858 6.27614 0.5 6 0.5C5.72386 0.5 5.5 0.723858 5.5 1H6.5ZM5.5 3C5.5 3.27614 5.72386 3.5 6 3.5C6.27614 3.5 6.5 3.27614 6.5 3H5.5ZM5 9.5C5.27614 9.5 5.5 9.27614 5.5 9C5.5 8.72386 5.27614 8.5 5 8.5V9.5ZM4 8.5C3.72386 8.5 3.5 8.72386 3.5 9C3.5 9.27614 3.72386 9.5 4 9.5V8.5ZM10 9.5C10.2761 9.5 10.5 9.27614 10.5 9C10.5 8.72386 10.2761 8.5 10 8.5V9.5ZM8 8.5C7.72386 8.5 7.5 8.72386 7.5 9C7.5 9.27614 7.72386 9.5 8 9.5V8.5ZM14 9.5C14.2761 9.5 14.5 9.27614 14.5 9C14.5 8.72386 14.2761 8.5 14 8.5V9.5ZM13 8.5C12.7239 8.5 12.5 8.72386 12.5 9C12.5 9.27614 12.7239 9.5 13 9.5V8.5ZM5 13.5C5.27614 13.5 5.5 13.2761 5.5 13C5.5 12.7239 5.27614 12.5 5 12.5V13.5ZM4 12.5C3.72386 12.5 3.5 12.7239 3.5 13C3.5 13.2761 3.72386 13.5 4 13.5V12.5ZM10 13.5C10.2761 13.5 10.5 13.2761 10.5 13C10.5 12.7239 10.2761 12.5 10 12.5V13.5ZM8 12.5C7.72386 12.5 7.5 12.7239 7.5 13C7.5 13.2761 7.72386 13.5 8 13.5V12.5ZM14 13.5C14.2761 13.5 14.5 13.2761 14.5 13C14.5 12.7239 14.2761 12.5 14 12.5V13.5ZM13 12.5C12.7239 12.5 12.5 12.7239 12.5 13C12.5 13.2761 12.7239 13.5 13 13.5V12.5ZM16.5 4V15H17.5V4H16.5ZM15 16.5H3V17.5H15V16.5ZM1.5 15V4H0.5V15H1.5ZM15 1.5H3V2.5H15V1.5ZM3 16.5C2.17157 16.5 1.5 15.8284 1.5 15H0.5C0.5 16.3807 1.61929 17.5 3 17.5V16.5ZM16.5 15C16.5 15.8284 15.8284 16.5 15 16.5V17.5C16.3807 17.5 17.5 16.3807 17.5 15H16.5ZM17.5 4C17.5 2.61929 16.3807 1.5 15 1.5V2.5C15.8284 2.5 16.5 3.17157 16.5 4H17.5ZM1.5 4C1.5 3.17157 2.17157 2.5 3 2.5V1.5C1.61929 1.5 0.5 2.61929 0.5 4H1.5ZM17 5H1V6H17V5ZM11.5 1V3H12.5V1H11.5ZM5.5 1V3H6.5V1H5.5ZM5 8.5H4V9.5H5V8.5ZM10 8.5H8V9.5H10V8.5ZM14 8.5H13V9.5H14V8.5ZM5 12.5H4V13.5H5V12.5ZM10 12.5H8V13.5H10V12.5ZM14 12.5H13V13.5H14V12.5Z" fill="#FF7643"/>
</svg>
